<svg id="visual" viewBox="0 0 1980 1024" width="1980" height="1024" xmlns="http://www.w3.org/2000/svg" xmlns:xlink="http://www.w3.org/1999/xlink" version="1.1"><rect x="0" y="0" width="1980" height="1024" fill="#001220"></rect><defs><linearGradient id="grad1_0" x1="48.3%" y1="0%" x2="100%" y2="100%"><stop offset="11.328125%" stop-color="#001220" stop-opacity="1"></stop><stop offset="88.671875%" stop-color="#001220" stop-opacity="1"></stop></linearGradient></defs><defs><linearGradient id="grad2_0" x1="0%" y1="0%" x2="51.7%" y2="100%"><stop offset="11.328125%" stop-color="#001220" stop-opacity="1"></stop><stop offset="88.671875%" stop-color="#001220" stop-opacity="1"></stop></linearGradient></defs><g transform="translate(1980, 0)"><path d="M0 614.4C-73.6 574.6 -147.1 534.8 -204 492.4C-260.8 450 -301 405 -366.3 366.3C-431.6 327.6 -522.1 295.1 -567.6 235.1C-613.2 175.1 -613.8 87.6 -614.4 0L0 0Z" fill="#FBAE3C"></path></g><g transform="translate(0, 1024)"><path d="M0 -614.4C89.4 -614.8 178.7 -615.3 235.1 -567.6C291.5 -520 315 -424.3 362.7 -362.7C410.5 -301.2 482.5 -273.7 528.5 -218.9C574.4 -164.1 594.4 -82.1 614.4 0L0 0Z" fill="#FBAE3C"></path></g></svg>